<svg xmlns="http://www.w3.org/2000/svg" viewBox="0 0 152.49 142.5"><title>Asset 3</title><g id="Layer_2" data-name="Layer 2"><g id="Layer_1-2" data-name="Layer 1"><path d="M90.79,97.72h0v-.07A.41.41,0,0,1,90.79,97.72ZM144,9.91c-3-5.13-11.47-11.49-20.9-9.56-9.8,2-22.58,13.16-27.89,55-.89,7.05-1.68,13.81-2.36,20.11a.61.61,0,0,1,0,.13c-.06.52-.45,5.53-.51,6a2.37,2.37,0,0,0-.5.23,11.17,11.17,0,0,1-3.23,1H88.5a6.86,6.86,0,0,1-1.51,0,5.35,5.35,0,0,1-.92-.18,4,4,0,0,1-1-.42c-2.49-1.44-3.52-10.06-3.64-16.39-.1-5-.06-10.19,0-15.25.12-17.7.22-33-4.65-37.88a5.38,5.38,0,0,0-4-1.69c-10.29,0-16.34,19.18-24.72,45.72l-.31,1c-3.7,11.71-5.61,13.73-6.17,14.09-.84-.82-1.64-4.74-2.38-11.66-.18-1.67-.33-3.7-.5-5.84-1-12.18-2.15-27.34-9-29.83a4.63,4.63,0,0,0-3.95.39c-6.08,3.44-10.26,20.7-12.21,30.69l-.12.61c-1.56,8.3-2.7,11.13-3.29,12.09a18.3,18.3,0,0,1-1.27-4.53c-.38-2-.68-3.7-.94-5.19-1-5.66-1.47-8.24-3.25-10.53a1.93,1.93,0,0,0-2.54-.63C-.5,49-.95,58.77,2.22,67.17c2.5,6.65,5.17,10.21,8.17,10.93a5.37,5.37,0,0,0,5-1.61c2.38-2.22,4.33-8.66,6.62-16.85.71-2.55,1.33-4.76,1.83-6.11a.13.13,0,0,1,0-.06c.37,2.13.71,5.59,1,8.78l.11,1.1c.72,7.3,4,20.61,9.75,25.27a6.9,6.9,0,0,0,5.2,1.7c7.54-.84,12.92-16,16.13-25.1.39-1.09.73-2.08,1-2.9,1.73-4.65,6-16.25,8.25-19.28a26.65,26.65,0,0,1,.16,5.11c-.08,2.27-.21,4.52-.33,6.69C64.39,69,63.37,85.64,74.87,94.7a15.83,15.83,0,0,0,9.24,3.74,9,9,0,0,0,1.12,0,12,12,0,0,0,1.91-.23,14.56,14.56,0,0,0,3.72-1.28c0,.44-.06.68-.06.79a.75.75,0,0,0,0,.09c0,.11,0,.3,0,.57,0,0,0,.09,0,.14-2.1,30.3.62,35.33.93,35.79,3.48,5.52,6.79,8.2,10.12,8.2H102a5.67,5.67,0,0,0,1.66-.3h0l0,0a2.14,2.14,0,0,0,.34-.12,7.26,7.26,0,0,0,.77-.36l.06,0,.12-.07.18-.11c.18-.11.35-.22.52-.35l.21-.17.35-.3.35-.32c.12-.11.23-.23.34-.35l.32-.35a14.44,14.44,0,0,0,1.15-1.52c.13-.19.26-.41.39-.62s.26-.43.38-.66a14.28,14.28,0,0,0,1.48-8.64c-1.79-16-2.44-25.78-2.29-37.89l3.78-1.73.8-.38.79-.37c10.57-5,20.53-10.45,21.11-10.81a36.91,36.91,0,0,0,15-17.64C156,44.14,150.38,20.85,144,9.91ZM132.1,66.13c-2.49,1.89-13.49,6.65-18.95,9l-.4.17c-2,.86-3.75,1.65-4.11,1.8,0,0,.24-4.15.25-4.2,0-.35.1-1.3.22-2.74.61-7.26,2.52-26.64,6.59-39.58,1.89-6,7-17.14,12.53-17.52a3.17,3.17,0,0,1,.59,0,1.43,1.43,0,0,1,.29.06l.25.06h0a3.39,3.39,0,0,1,.4.14c.15.06.3.13.45.2a7,7,0,0,1,1.58,1.12c4.72,4.34,8.3,15.81,8.49,27.25C140.53,54.58,136,63.18,132.1,66.13Z" style="fill:#fff"/><path d="M109.11,70.17c-.12,1.43-.19,2.38-.22,2.74,0-.73.09-1.45.16-2.17,0-.18,0-.37,0-.55Z" style="fill:#ccc"/><path d="M92.31,81.6,90.86,96.91a14.56,14.56,0,0,1-3.72,1.28,12,12,0,0,1-1.91.23L87,82.88a6.86,6.86,0,0,0,1.51,0h.07a11.17,11.17,0,0,0,3.23-1A2.37,2.37,0,0,1,92.31,81.6Z" style="opacity:0.2"/><path d="M112.94,88.22l.21-13.09-.4.17c-2,.86-3.75,1.65-4.11,1.8l-.29,13.23,3.78-1.73Z" style="opacity:0.2"/></g></g></svg>